<svg width="127" height="46" viewBox="0 0 127 46" fill="none" xmlns="http://www.w3.org/2000/svg">
<path d="M123.214 17.8571C123.604 19.8154 125.777 41.6846 78.7593 43.2512L51.0665 44L27.4382 43.4861C24.6637 43.4257 21.9057 43.0412 19.2205 42.3403L13.7648 40.9164C10.8861 40.165 8.27575 38.6212 6.23049 36.4605L6.04811 36.2678C4.46177 34.5919 3.28967 32.568 2.62557 30.358L2.45254 29.7822C2.15246 28.7836 2 27.7464 2 26.7037V26.7037C2 23.8405 3.14779 21.0969 5.18656 19.0866L6.19542 18.0918C6.66898 17.6249 7.17502 17.1921 7.70974 16.7966L9.48101 15.4867C12.1184 13.5363 14.9605 11.8792 17.9569 10.5446L22.7857 8.39399V8.39399C36.1825 4.15643 50.1504 2 64.2015 2H74.0806H89.7173C93.3826 2 97.0301 2.50948 100.555 3.51381L105.993 5.06319C114.813 7.57609 121.886 14.1778 125 22.8037V22.8037" stroke="white" stroke-width="3" stroke-linecap="round"/>
<path d="M23.3771 19.056H26.2501V25.712H30.8391V28H23.3771V19.056ZM30.748 28V19.056H33.621V28H30.748ZM37.9978 18.9C39.1418 18.9 40.0821 19.134 40.8188 19.602C41.5554 20.0613 41.9324 20.746 41.9498 21.656V21.812H39.2588V21.76C39.2588 21.5 39.1634 21.2833 38.9728 21.11C38.7821 20.9367 38.4918 20.85 38.1018 20.85C37.7204 20.85 37.4258 20.9063 37.2178 21.019C37.0184 21.1317 36.9188 21.2703 36.9188 21.435C36.9188 21.669 37.0574 21.8423 37.3348 21.955C37.6121 22.0677 38.0584 22.1847 38.6738 22.306C39.3931 22.4533 39.9824 22.6093 40.4418 22.774C40.9098 22.93 41.3171 23.19 41.6638 23.554C42.0104 23.918 42.1881 24.412 42.1968 25.036C42.1968 26.0933 41.8371 26.8777 41.1178 27.389C40.4071 27.9003 39.4538 28.156 38.2578 28.156C36.8624 28.156 35.7748 27.922 34.9948 27.454C34.2234 26.986 33.8378 26.1583 33.8378 24.971H36.5548C36.5548 25.4217 36.6718 25.725 36.9058 25.881C37.1398 26.0283 37.5038 26.102 37.9978 26.102C38.3618 26.102 38.6608 26.063 38.8948 25.985C39.1374 25.907 39.2588 25.7467 39.2588 25.504C39.2588 25.2873 39.1244 25.127 38.8558 25.023C38.5958 24.9103 38.1668 24.7933 37.5688 24.672C36.8408 24.516 36.2384 24.3557 35.7618 24.191C35.2851 24.0177 34.8691 23.736 34.5138 23.346C34.1584 22.956 33.9808 22.4273 33.9808 21.76C33.9808 20.7807 34.3578 20.0613 35.1118 19.602C35.8744 19.134 36.8364 18.9 37.9978 18.9ZM47.3406 21.344V28H44.4676V21.344H41.5296V19.056H50.2656V21.344H47.3406ZM50.1444 19.056H57.8794V21.201H53.0174V22.436H57.1774V24.49H53.0174V25.855H57.9704V28H50.1444V19.056ZM64.4923 28L60.7353 23.658V28H58.0963V19.056H60.6053L64.3623 23.463V19.056H67.0013V28H64.4923ZM76.7905 28L73.0335 23.658V28H70.3945V19.056H72.9035L76.6605 23.463V19.056H79.2995V28H76.7905ZM84.2396 18.9C85.7823 18.9 86.9739 19.2943 87.8146 20.083C88.6553 20.8717 89.0756 22.02 89.0756 23.528C89.0756 25.036 88.6553 26.1843 87.8146 26.973C86.9739 27.7617 85.7823 28.156 84.2396 28.156C82.6969 28.156 81.5053 27.766 80.6646 26.986C79.8326 26.1973 79.4166 25.0447 79.4166 23.528C79.4166 22.0113 79.8326 20.863 80.6646 20.083C81.5053 19.2943 82.6969 18.9 84.2396 18.9ZM84.2396 21.045C83.6243 21.045 83.1563 21.2313 82.8356 21.604C82.5149 21.9767 82.3546 22.4793 82.3546 23.112V23.944C82.3546 24.5767 82.5149 25.0793 82.8356 25.452C83.1563 25.8247 83.6243 26.011 84.2396 26.011C84.8549 26.011 85.3229 25.8247 85.6436 25.452C85.9729 25.0793 86.1376 24.5767 86.1376 23.944V23.112C86.1376 22.4793 85.9729 21.9767 85.6436 21.604C85.3229 21.2313 84.8549 21.045 84.2396 21.045ZM95.6979 28L94.5409 22.553H94.4889L93.3319 28H90.1729L88.0799 19.056H91.0699L92.0969 24.126H92.1489L93.1629 19.056H95.9969L97.0759 24.126H97.1279L98.0899 19.056H100.95L98.8569 28H95.6979Z" fill="white"/>
</svg>
