<svg width="163" height="46" viewBox="0 0 163 46" fill="none" xmlns="http://www.w3.org/2000/svg">
<path d="M158.692 17.8571C159.195 19.8154 162.005 41.6846 101.225 43.2512L65.4275 44L34.426 43.4784C31.139 43.4231 27.8639 43.0679 24.6415 42.4172L16.0556 40.6837C13.0731 40.0814 10.2826 38.7602 7.92663 36.8348L6.75599 35.8781C5.02436 34.4629 3.68865 32.6234 2.8789 30.5388L2.60142 29.8245C2.20393 28.8012 2 27.713 2 26.6153V26.6153C2 23.8509 3.28984 21.2448 5.48781 19.5682L8.34275 17.3905V17.3905C13.9683 14.1723 19.8839 11.4898 26.0114 9.37864L28.8693 8.39399V8.39399C46.2269 4.14671 64.0319 2 81.9017 2H95.1774H116.6C120.543 2 124.475 2.42809 128.325 3.27675L139.783 5.80225C149.116 7.85917 156.959 14.1438 161 22.8037V22.8037" stroke="white" stroke-width="3" stroke-linecap="round"/>
<path d="M31.2667 27L30.1097 21.553H30.0577L28.9007 27H25.7417L23.6487 18.056H26.6387L27.6657 23.126H27.7177L28.7317 18.056H31.5657L32.6447 23.126H32.6967L33.6587 18.056H36.5187L34.4257 27H31.2667ZM42.1087 27L41.7317 25.739H38.5987L38.2217 27H35.2837L38.5467 18.056H41.8877L45.1507 27H42.1087ZM39.1967 23.737H41.1337L40.1977 20.552H40.1457L39.1967 23.737ZM49.0505 20.344V27H46.1775V20.344H43.2395V18.056H51.9755V20.344H49.0505ZM55.674 17.9C57 17.9 58.0487 18.2337 58.82 18.901C59.5914 19.5597 59.977 20.5043 59.977 21.735H57.234C57.234 21.215 57.0954 20.8033 56.818 20.5C56.5494 20.1967 56.1637 20.045 55.661 20.045C55.0804 20.045 54.6514 20.227 54.374 20.591C54.1054 20.955 53.971 21.462 53.971 22.112V22.944C53.971 23.5853 54.1054 24.0923 54.374 24.465C54.6514 24.829 55.0717 25.011 55.635 25.011C56.1897 25.011 56.61 24.868 56.896 24.582C57.182 24.296 57.325 23.893 57.325 23.373H59.977C59.977 24.595 59.6 25.531 58.846 26.181C58.1007 26.831 57.0434 27.156 55.674 27.156C54.1487 27.156 52.9917 26.766 52.203 25.986C51.423 25.206 51.033 24.0533 51.033 22.528C51.033 21.0027 51.423 19.85 52.203 19.07C52.9917 18.29 54.1487 17.9 55.674 17.9ZM66.1302 27V23.607H62.9712V27H60.0982V18.056H62.9712V21.319H66.1302V18.056H69.0032V27H66.1302ZM77.5444 20.344V27H74.6714V20.344H71.7334V18.056H80.4694V20.344H77.5444ZM86.3802 27V23.607H83.2212V27H80.3482V18.056H83.2212V21.319H86.3802V18.056H89.2532V27H86.3802ZM89.7473 18.056H97.4823V20.201H92.6203V21.436H96.7803V23.49H92.6203V24.855H97.5733V27H89.7473V18.056ZM103.029 27L99.8573 18.056H102.925L104.719 24.036H104.771L106.578 18.056H109.516L106.357 27H103.029ZM109.416 27V18.056H112.289V27H109.416ZM116.783 18.056C119.912 18.056 121.476 19.5467 121.476 22.528C121.476 25.5093 119.912 27 116.783 27H112.909V18.056H116.783ZM115.782 24.855H116.731C117.936 24.855 118.538 24.2093 118.538 22.918V22.138C118.538 20.8467 117.936 20.201 116.731 20.201H115.782V24.855ZM121.597 18.056H129.332V20.201H124.47V21.436H128.63V23.49H124.47V24.855H129.423V27H121.597V18.056ZM133.995 17.9C135.538 17.9 136.73 18.2943 137.57 19.083C138.411 19.8717 138.831 21.02 138.831 22.528C138.831 24.036 138.411 25.1843 137.57 25.973C136.73 26.7617 135.538 27.156 133.995 27.156C132.453 27.156 131.261 26.766 130.42 25.986C129.588 25.1973 129.172 24.0447 129.172 22.528C129.172 21.0113 129.588 19.863 130.42 19.083C131.261 18.2943 132.453 17.9 133.995 17.9ZM133.995 20.045C133.38 20.045 132.912 20.2313 132.591 20.604C132.271 20.9767 132.11 21.4793 132.11 22.112V22.944C132.11 23.5767 132.271 24.0793 132.591 24.452C132.912 24.8247 133.38 25.011 133.995 25.011C134.611 25.011 135.079 24.8247 135.399 24.452C135.729 24.0793 135.893 23.5767 135.893 22.944V22.112C135.893 21.4793 135.729 20.9767 135.399 20.604C135.079 20.2313 134.611 20.045 133.995 20.045Z" fill="white"/>
</svg>
